<svg xmlns="http://www.w3.org/2000/svg" viewBox="0 0 512 512">
  <defs>
    <linearGradient id="folderGrad" x1="0%" y1="0%" x2="100%" y2="100%">
      <stop offset="0%" stop-color="#3b82f6" />
      <stop offset="100%" stop-color="#1d4ed8" />
    </linearGradient>
    <linearGradient id="paperGrad" x1="0%" y1="0%" x2="100%" y2="100%">
      <stop offset="0%" stop-color="#ffffff" />
      <stop offset="100%" stop-color="#e2e8f0" />
    </linearGradient>
    <filter id="shadow" x="-20%" y="-20%" width="140%" height="140%">
      <feDropShadow dx="0" dy="12" stdDeviation="16" flood-color="#1d4ed8" flood-opacity="0.3"/>
    </filter>
  </defs>

  <!-- Paper Document Sticking Out -->
  <path d="M144 80h160c17.7 0 32 14.3 32 32v120H112V112c0-17.7 14.3-32 32-32z" fill="url(#paperGrad)" />
  <rect x="152" y="112" width="100" height="12" rx="6" fill="#cbd5e1" />
  <rect x="152" y="144" width="144" height="12" rx="6" fill="#cbd5e1" />

  <!-- Folder/Document Base Shape -->
  <path d="M80 160C80 124.6 108.6 96 144 96H213.3C230.2 96 246.5 102.7 258.5 114.7L290.7 147C302.7 159 319 165.7 336 165.7H368C403.4 165.7 432 194.3 432 229.7V384C432 419.4 403.4 448 368 448H144C108.6 448 80 419.4 80 384V160Z" fill="url(#folderGrad)" filter="url(#shadow)"/>
  
  <!-- Subtle inner gradient for 3D folder flap -->
  <path d="M100 210C100 182.4 122.4 160 150 160H432C432 280 340 400 180 400C152.4 400 130 377.6 130 350V210Z" fill="#ffffff" opacity="0.08"/>

  <!-- Family Group Icon on the Folder -->
  <g fill="#ffffff">
    <!-- Parent 1 (Left) -->
    <circle cx="190" cy="260" r="24"/>
    <path d="M190 296c-28.7 0-52 23.3-52 52v14h104v-14c0-28.7-23.3-52-52-52z"/>
    
    <!-- Parent 2 (Right) -->
    <circle cx="320" cy="260" r="24"/>
    <path d="M320 296c-28.7 0-52 23.3-52 52v14h104v-14c0-28.7-23.3-52-52-52z"/>
    
    <!-- Child (Center) -->
    <circle cx="255" cy="310" r="18"/>
    <path d="M255 336c-20 0-36 16-36 36v18h72v-18c0-20-16-36-36-36z"/>
  </g>
</svg>
